<svg width="79" height="92" viewBox="0 0 79 92" fill="none" xmlns="http://www.w3.org/2000/svg">
<path d="M66.8961 36.3512C66.8961 45.1984 62.4364 54.0456 55.4283 59.7331C52.8799 61.629 51.6058 64.1567 51.6058 66.6845V68.5803C50.3316 68.5803 49.0574 69.2123 48.4203 69.2123C46.509 69.8442 45.2348 69.8442 45.2348 69.8442C45.2348 62.2609 49.6945 57.2054 49.6945 57.2054C68.8074 30.0317 49.0574 16.129 40.138 11.7053C37.5896 9.80952 36.3154 9.17757 36.3154 9.17757C36.3154 9.17757 36.3154 8.54563 36.9525 7.28174C44.5977 7.28174 52.2429 9.80952 57.9767 15.497C63.7106 20.5526 66.8961 28.7678 66.8961 36.3512Z" fill="#1F91CB"/>
<path d="M57.9768 15.4969C52.243 9.80935 44.5978 7.28157 36.3156 7.91352H35.6785C29.3075 8.54546 22.9365 11.0732 18.4768 14.8649C17.8397 15.4969 17.8397 16.7607 18.4768 17.3927C19.1139 18.0246 20.3881 18.0246 21.0252 17.3927C24.8478 13.601 30.5817 11.7052 36.3156 11.0732C37.5897 11.0732 38.8639 11.0732 40.1381 11.0732C45.872 11.7052 50.9688 14.233 55.4285 18.0246C60.5252 22.4482 63.0736 26.8719 63.0736 33.8232C63.0736 34.4552 63.0736 34.4552 63.0736 35.0871V35.7191C63.0736 36.351 63.7107 36.983 64.3478 36.983C65.622 36.983 66.2591 36.351 66.2591 35.0871C66.8962 27.5038 63.0736 20.5524 57.9768 15.4969Z" fill="#1B4C7E"/>
<path d="M64.3473 41.4062C65.6215 41.4062 66.2586 42.6701 66.2586 43.3021C64.3473 49.6215 60.5248 55.309 55.428 59.7326C52.8796 61.6285 51.6054 64.1563 51.6054 66.684V67.9479H48.4199V66.684C48.4199 62.8924 50.3312 59.1007 53.5167 56.5729C58.6135 52.7812 61.799 47.7257 63.0731 42.0382C63.0731 42.0382 63.7102 41.4062 64.3473 41.4062Z" fill="#1B4C7E"/>
<path d="M28.0325 66.6842V67.948H24.2099V66.6842C24.2099 64.1564 22.9357 60.9967 20.3873 59.7328C12.7422 54.0453 8.28248 44.5661 8.91958 34.455C8.91958 30.6633 10.1938 26.8717 12.1051 23.7119C12.7422 23.08 14.0164 22.4481 14.6534 23.08C15.2905 23.7119 15.2905 24.3439 14.6534 25.6078C13.3793 28.1356 12.7422 31.2953 12.1051 34.455C12.1051 43.3022 15.9276 51.5175 22.9357 57.205C26.1212 59.1008 28.0325 62.8925 28.0325 66.6842Z" fill="#1B4C7E"/>
<path d="M28.0321 73.0045V76.1642H48.4192V73.0045H28.0321ZM52.2418 67.949H23.5725C22.9354 67.949 22.9354 67.949 22.2983 67.949C20.387 68.5809 19.1128 69.8448 19.1128 71.7406C19.1128 72.3726 19.1128 73.6365 19.7499 74.2684C21.0241 75.5323 22.2983 76.1642 23.5725 76.1642H52.2418C53.516 76.1642 54.7902 75.5323 55.4273 74.2684C56.0644 73.6365 56.0644 73.0045 56.0644 71.7406C56.7015 69.8448 54.7902 67.949 52.2418 67.949ZM52.2418 73.0045H23.5725C22.9354 73.0045 22.9354 73.0045 22.9354 72.3726C22.9354 71.7406 22.9354 71.7406 23.5725 71.7406H52.2418C52.8789 71.7406 52.8789 71.7406 52.8789 72.3726C52.8789 73.0045 52.8789 73.0045 52.2418 73.0045ZM28.0321 73.0045V76.1642H48.4192V73.0045H28.0321Z" fill="#1B4C7E"/>
<path d="M56.065 74.8993C55.4279 73.6354 54.1537 73.0034 52.8795 73.0034H23.5731C22.2989 73.0034 21.0247 73.6354 20.3876 74.8993C19.7505 75.5312 19.7505 76.1631 19.7505 77.427C19.7505 78.6909 20.3876 79.9548 21.6618 81.2187C22.2989 81.8506 22.936 81.8506 23.5731 81.8506H52.2424C52.8795 81.8506 54.1537 81.8506 54.7908 81.2187C56.065 80.5868 56.7021 79.3229 56.7021 78.059C56.7021 76.1631 56.065 75.5312 56.065 74.8993ZM52.2424 76.1631C52.8795 76.1631 52.8795 76.1631 52.8795 76.7951C52.8795 77.427 52.8795 77.427 52.2424 77.427H23.5731C22.936 77.427 22.936 77.427 22.936 76.7951C22.936 76.1631 22.936 76.1631 23.5731 76.1631H52.2424Z" fill="#1B4C7E"/>
<path d="M54.7897 80.587C54.1526 79.3231 52.8784 78.0592 50.9671 78.0592H25.4832C23.5719 78.0592 22.2977 79.3231 21.6606 80.587C21.6606 81.2189 21.6606 81.2189 21.6606 81.8509C21.6606 83.7467 23.5719 85.6425 25.4832 85.6425C26.1203 85.6425 26.7574 85.0106 26.7574 84.3787V83.1148C26.1203 83.1148 26.1203 82.4828 25.4832 82.4828H24.8461C24.209 82.4828 24.209 82.4828 24.209 81.8509C24.209 81.8509 24.209 81.2189 24.8461 81.2189H50.9671C50.9671 81.2189 51.6042 81.2189 51.6042 81.8509C51.6042 82.4828 51.6042 82.4828 50.9671 82.4828H31.2171C30.58 82.4828 29.3058 83.1148 29.3058 84.3787C29.3058 85.0106 29.9429 86.2745 31.2171 86.2745H50.9671C52.8784 86.2745 54.7897 84.3787 54.7897 82.4828C55.4268 81.2189 54.7897 80.587 54.7897 80.587Z" fill="#1B4C7E"/>
<path d="M37.5883 91.3298C33.7657 91.3298 31.2173 88.17 31.2173 85.0103V82.4825H33.1286H44.5963V84.3784C44.5963 88.17 41.4108 91.3298 37.5883 91.3298ZM35.677 86.2742C36.3141 86.9062 36.9512 86.9062 37.5883 86.9062C38.2253 86.9062 38.8624 86.2742 39.4995 86.2742H35.677Z" fill="#1B4C7E"/>
<path d="M37.5877 52.7815L41.4102 36.9828L44.5957 45.8301H45.2328L41.4102 33.8231L37.5877 49.6217L33.7651 40.1426L30.5796 46.462H31.2167L33.7651 42.6703L37.5877 52.7815Z" fill="#1B4C7E"/>
<path d="M45.8713 45.1987L45.2342 48.9904L43.3229 67.3168V69.2126C43.3229 69.2126 43.3229 69.8445 42.6858 69.8445H42.0487C41.4116 69.8445 41.4116 69.2126 41.4116 69.2126L43.96 46.4626V45.1987C43.96 44.5668 44.5971 43.9348 45.2342 43.9348C45.8713 43.9348 45.8713 44.5668 45.8713 45.1987Z" fill="#1B4C7E"/>
<path d="M33.7668 68.5813C33.7668 69.2132 33.7668 69.2132 33.7668 68.5813C33.7668 69.2132 33.1297 69.2132 33.1297 69.2132C32.4926 69.2132 32.4926 69.2132 32.4926 68.5813V67.9493L30.5813 54.6785L29.3071 45.1993C29.3071 44.5674 29.3071 44.5674 29.9442 44.5674C30.5813 43.9354 31.2184 44.5674 31.2184 44.5674L32.4926 55.3104L33.7668 68.5813Z" fill="#1B4C7E"/>
<path d="M61.7993 36.3517H63.7106C63.7106 38.2475 63.7106 39.5114 63.0735 41.4072H61.7993V36.3517Z" fill="#1F91CB"/>
<path d="M62.435 9.17761C61.7979 9.17761 61.7979 9.17761 61.1608 9.17761C60.5237 9.17761 59.8866 7.91372 60.5237 7.28178L62.435 2.22622C62.435 1.59428 63.7091 0.962335 64.3462 1.59428C64.9833 1.59428 65.6204 2.85817 64.9833 3.49011L63.7091 8.54567C63.7091 9.17761 63.072 9.17761 62.435 9.17761Z" fill="#ACBCCB"/>
<path d="M68.8063 14.2326C68.1692 14.2326 68.1692 14.2326 68.1692 13.6007C67.5321 12.9687 67.5321 12.3368 68.1692 11.7048L71.9918 7.91317C72.6289 7.28122 73.266 7.28122 73.9031 7.91317C74.5402 8.54511 74.5402 9.17706 73.9031 9.809L70.0805 13.6007C70.0805 13.6007 69.4434 14.2326 68.8063 14.2326Z" fill="#ACBCCB"/>
<path d="M79.0005 19.9212C79.0005 19.9212 79.0005 19.2893 79.0005 18.6573C79.0005 18.0254 77.7263 17.3934 77.0892 17.3934L71.9925 19.2893C71.3554 19.2893 70.7183 20.5532 70.7183 21.1851C70.7183 21.817 71.9924 22.449 72.6295 22.449L77.7263 21.1851C78.3634 20.5532 79.0005 20.5532 79.0005 19.9212Z" fill="#ACBCCB"/>
<path d="M5.73387 69.2119C4.45968 69.2119 2.54839 68.5799 1.91129 67.316C-0.637097 64.7883 -0.637097 61.6285 1.91129 59.1008C3.82258 57.2049 7.64516 57.2049 10.1935 59.7327C12.7419 62.2605 12.7419 65.4202 10.1935 67.948C8.91936 69.2119 7.00807 69.2119 5.73387 69.2119ZM5.73387 61.6285C5.09677 61.6285 5.09677 61.6285 4.45968 62.2605C3.82258 62.8924 3.82258 64.1563 4.45968 64.7883C5.09677 65.4202 6.37097 65.4202 7.00807 64.7883C7.64516 64.1563 7.64516 62.8924 7.00807 62.2605C7.00807 62.2605 6.37097 61.6285 5.73387 61.6285Z" fill="#ACBCCB"/>
<path d="M20.3875 9.17757C19.1133 9.17757 17.8391 9.17757 17.202 7.91368C15.2907 6.01785 15.2907 3.49007 17.202 1.59424C19.1133 -0.301595 21.6617 -0.301595 23.573 1.59424C25.4843 3.49007 25.4843 6.64979 23.573 7.91368C22.2988 9.17757 21.6617 9.17757 20.3875 9.17757ZM20.3875 3.49007C19.7504 3.49007 19.7504 3.49007 19.1133 4.12202C18.4762 4.75396 18.4762 5.3859 19.1133 6.01785C19.7504 6.64979 20.3875 6.64979 21.0246 6.01785C21.6617 5.3859 21.6617 4.75396 21.0246 4.12202C21.0246 3.49007 20.3875 3.49007 20.3875 3.49007Z" fill="#ACBCCB"/>
<path d="M67.5326 59.7326H66.2584V58.4687C66.2584 57.8368 65.6213 57.2048 64.9842 57.2048C64.3471 57.2048 63.71 57.8368 63.71 58.4687V59.7326H62.4358C61.7987 59.7326 61.1616 60.3646 61.1616 60.9965C61.1616 61.6284 61.7987 62.2604 62.4358 62.2604H63.71V63.5243C63.71 64.1562 64.3471 64.7882 64.9842 64.7882C65.6213 64.7882 66.2584 64.1562 66.2584 63.5243V62.8923H67.5326C68.1697 62.8923 68.8068 62.2604 68.8068 61.6284C69.4439 60.3646 68.8068 59.7326 67.5326 59.7326Z" fill="#ACBCCB"/>
<path d="M11.4673 4.75423H10.8302V4.12229C10.8302 3.49034 10.1931 2.8584 9.55598 2.8584C8.91888 2.8584 8.28179 3.49034 8.28179 4.12229V4.75423H7.00759C6.3705 4.75423 5.7334 5.38618 5.7334 6.01812C5.7334 6.65006 6.3705 7.28201 7.00759 7.28201H7.64469V7.91395C7.64469 8.5459 8.28179 9.17784 8.91888 9.17784C9.55598 9.17784 10.1931 8.5459 10.1931 7.91395V7.28201H10.8302C12.1044 7.28201 12.7415 6.65006 12.7415 6.01812C12.7415 5.38618 12.1044 4.75423 11.4673 4.75423Z" fill="#ACBCCB"/>
</svg>
