<svg width="90" height="82" viewBox="0 0 90 82" fill="none" xmlns="http://www.w3.org/2000/svg">
<path d="M79.7602 19.7694V25.1694H71.6764C71.6764 24.6294 71.6764 24.6294 71.6764 24.0894L72.2153 23.0094L71.6764 22.4694L71.1375 23.0094C70.5985 23.5494 70.0596 23.5494 70.0596 23.0094C70.0596 23.0094 69.5207 23.0094 69.5207 22.4694H68.9818C68.4428 22.4694 68.4429 21.9294 67.9039 21.3894V20.3094H66.8261V21.3894C66.8261 21.9294 66.2872 22.4694 65.7482 22.4694H65.2093C65.2093 22.4694 64.6704 22.4694 64.6704 23.0094C64.1315 23.0094 63.5926 23.0094 63.5926 23.0094L63.0536 22.4694L62.5147 23.0094V23.5494L63.0536 24.0894C63.0536 24.6294 63.5925 24.6294 63.0536 25.1694H10.7782L10.2393 19.7694C10.2393 19.2294 10.2393 19.2294 10.2393 18.6894C10.2393 18.6894 10.2393 18.6894 10.2393 18.1494C10.2393 18.1494 10.2393 18.1494 10.2393 17.6094C10.7782 17.0694 10.7782 17.0694 10.7782 16.5294C11.3171 15.4494 11.856 14.3694 12.3949 13.8294H12.9339C13.4728 13.8294 14.0117 13.2894 14.5506 13.2894H71.6764C72.2153 13.2894 73.2931 13.2894 73.8321 13.8294C74.371 13.8294 74.371 14.3694 74.9099 14.3694C74.9099 14.3694 74.9099 14.9094 75.4488 14.9094C75.4488 14.9094 75.4488 14.9094 75.4488 15.4494C75.9878 15.9894 75.9878 17.0694 75.9878 18.1494C75.9878 18.1494 75.9878 18.1494 75.9878 18.6894C79.7602 18.6894 79.7602 19.2294 79.7602 19.7694C79.7602 19.2294 79.7602 19.7694 79.7602 19.7694Z" fill="#1F91CB"/>
<path d="M62.5148 12.2096H27.4849C26.946 12.2096 25.8681 12.7496 25.8681 13.8296C25.8681 14.9096 26.4071 15.4496 27.4849 15.4496H62.5148C63.5927 15.4496 64.1316 14.9096 64.1316 13.8296C64.1316 12.7496 63.5927 12.2096 62.5148 12.2096ZM23.1735 13.8296C23.1735 12.7496 22.6346 12.2096 21.5568 12.2096H16.7065C13.4729 12.2096 10.7783 15.4496 10.7783 19.7696V28.4096C10.7783 29.4896 11.3172 30.0296 11.8562 30.0296C12.3951 30.0296 12.3951 30.0296 12.934 29.4896C12.934 28.9496 13.4729 28.9496 13.4729 28.4096V19.7696C13.4729 17.6096 15.0897 15.4496 16.7065 15.4496H21.5568C22.0957 15.4496 23.1735 14.9096 23.1735 13.8296ZM77.6047 14.3696C76.5268 13.2896 74.91 12.2096 73.2933 12.2096H68.443C67.3651 12.2096 66.8262 12.7496 66.8262 13.8296C66.8262 14.9096 67.3651 15.4496 68.443 15.4496H73.2933C73.8322 15.4496 74.91 15.9896 75.449 16.5296C76.5268 17.0696 76.5268 18.6896 76.5268 19.7696V64.5896C76.5268 66.7496 74.91 68.9096 73.2933 68.9096H65.7484C64.6705 68.9096 64.1316 69.4496 64.1316 70.5296C64.1316 71.6096 64.6705 72.1496 65.7484 72.1496H73.2933C76.5268 72.1496 79.2214 68.9096 79.2214 64.5896V19.7696C79.7603 17.6096 79.2214 15.4496 77.6047 14.3696ZM16.7065 68.9096C14.5508 68.9096 13.4729 67.2896 13.4729 64.5896V37.0496C13.4729 35.9696 12.934 35.4296 12.3951 35.4296C11.8562 35.4296 11.8562 35.4296 11.3172 35.9696C11.3172 36.5096 10.7783 36.5096 10.7783 37.0496V64.5896C10.7783 68.9096 13.4729 72.1496 16.7065 72.1496H44.1915C45.2693 72.1496 45.8083 71.6096 45.8083 70.5296C45.8083 69.4496 45.2693 68.9096 44.1915 68.9096H16.7065Z" fill="#1B4C7E"/>
<path d="M62.5148 24.0896L61.9759 23.5496V23.0096H12.934V19.7696C12.934 19.7696 12.934 19.7696 12.934 19.2296C12.934 19.2296 12.934 19.2296 12.934 18.6896C12.934 18.6896 12.934 18.6896 12.934 18.1496C12.934 17.6096 12.934 18.1496 12.934 17.6096C12.934 17.6096 12.934 17.6096 12.934 17.0696L13.4729 16.5296C14.0119 16.5296 14.0119 16.5296 14.5508 16.5296H24.2514V12.2096H16.7065C16.1675 12.2096 15.6286 12.2096 15.0897 12.7496H14.5508C11.8562 14.3696 11.3172 15.4496 10.7783 16.5296C10.7783 17.0696 10.7783 17.0696 10.7783 17.6096C10.7783 17.6096 10.7783 17.6096 10.7783 18.1496C10.7783 18.1496 10.7783 18.1496 10.7783 18.6896C10.7783 19.2296 10.7783 19.2296 10.7783 19.7696L11.3172 25.1696V26.2496H62.5148C61.9759 25.7096 63.0538 25.7096 63.0538 25.7096C62.5148 24.6296 62.5148 24.0896 62.5148 24.0896ZM63.0538 23.0096C63.5927 23.5496 64.1316 23.5496 64.6705 23.5496C64.6705 23.5496 65.2095 23.5496 65.2095 23.0096H63.0538ZM68.9819 23.0096C68.9819 23.0096 69.5208 23.0096 69.5208 23.5496C70.0597 23.5496 70.5987 23.5496 70.5987 23.5496H68.9819V23.0096ZM79.7604 19.2296V18.6896C79.7604 18.6896 79.7604 18.6896 79.7604 18.1496C79.7604 17.0696 79.2214 16.5296 79.2214 15.4496C79.2214 15.4496 79.2214 15.4496 79.2214 14.9096C79.2214 14.9096 79.2214 14.3696 78.6825 14.3696C78.6825 13.8296 78.1436 13.8296 77.6047 13.8296C77.0657 13.8296 76.5268 13.2896 75.449 13.2896H68.9819V16.5296H75.449C75.449 16.5296 75.449 16.5296 75.9879 16.5296H76.5268L77.0657 17.0696C77.0657 17.6096 77.6047 18.1496 77.6047 18.6896V21.9296H72.7544L72.2154 23.0096C72.2154 23.5496 71.6765 23.5496 72.2154 24.0896C72.2154 24.6296 72.7544 24.6296 72.7544 25.1696H80.2993L79.7604 19.2296C79.7604 19.7696 79.7604 19.2296 79.7604 19.2296ZM63.0538 23.0096C63.5927 23.5496 64.1316 23.5496 64.6705 23.5496C64.6705 23.5496 65.2095 23.5496 65.2095 23.0096H63.0538ZM25.8681 12.2096V15.4496H66.8262V12.2096H25.8681ZM68.9819 23.0096C68.9819 23.0096 69.5208 23.0096 69.5208 23.5496C70.0597 23.5496 70.5987 23.5496 70.5987 23.5496H68.9819V23.0096Z" fill="#1B4C7E"/>
<path d="M26.9464 47.3091L25.8686 49.4691L23.7129 48.9291L24.2518 48.3891L23.7129 47.8491L22.0961 46.2291L21.0183 45.1491L19.9404 44.0691L14.5512 38.6691H12.9344C12.3955 38.6691 12.3955 38.6691 12.3955 38.1291L8.62305 32.7291C8.62305 32.1891 8.62305 32.1891 8.62305 31.6491L9.70089 30.5691C10.7787 31.1091 10.7787 31.1091 10.7787 31.1091V31.6491C10.7787 32.1891 10.7787 32.7291 11.3177 32.7291L14.0123 36.5091H15.629C16.168 36.5091 16.168 36.5091 16.168 37.0491L26.4075 46.7691L26.9464 47.3091Z" fill="#1F91CB"/>
<path d="M49.042 37.049C49.042 41.369 45.2696 45.149 40.9582 45.149C40.4193 45.149 39.8803 45.149 39.3414 45.149H38.8025L37.7247 46.769L36.1079 48.389L34.4911 49.469L35.569 50.549L36.1079 50.009C36.6468 50.009 36.6468 50.009 37.1857 50.009C37.1857 50.009 37.7247 50.549 37.1857 51.089C36.1079 52.169 34.4911 52.709 34.4911 52.709C34.4911 52.709 33.4133 53.249 32.3354 53.789L34.4911 51.629L33.4133 50.549L30.1797 54.329L30.7187 54.869C30.1797 54.869 29.6408 55.409 29.1019 55.409C28.563 55.409 28.563 55.409 28.0241 55.949C26.9462 56.489 25.8684 57.029 25.8684 57.029L25.3294 56.489L24.7905 55.409L38.2636 42.449C44.1917 42.989 46.3474 39.209 47.4253 37.049C47.9642 35.969 47.9642 35.429 47.9642 35.429L47.4253 34.349H47.9642C47.9642 34.349 48.5031 34.349 48.5031 34.889C49.042 35.429 49.042 36.509 49.042 37.049Z" fill="#1F91CB"/>
<path d="M33.4142 39.2098H32.8752C32.3363 39.2098 32.3363 38.6698 32.3363 38.6698V36.5098C32.3363 35.9698 31.7974 35.4298 30.7196 35.4298H28.5639C28.025 35.4298 27.486 35.9698 26.9471 36.5098V38.6698C26.9471 39.2098 26.9471 39.2098 26.4082 39.2098C25.3303 39.2098 24.7914 39.7498 24.2525 40.2898H23.7136L22.0968 38.6698C22.0968 38.6698 21.5579 38.6698 21.5579 38.1298C21.019 38.1298 20.48 38.1298 20.48 38.6698L19.9411 39.2098L21.019 40.2898V39.7498L22.6357 40.8298C23.1747 41.3698 23.7136 41.3698 24.2525 41.3698H24.7914C25.8693 40.8298 26.4082 40.8298 26.9471 40.2898C28.025 40.2898 28.5639 39.2098 28.5639 38.1298V36.5098H30.7196V38.6698C30.7196 39.7498 31.2585 40.2898 32.3363 40.2898C32.8752 40.2898 33.4142 40.8298 33.9531 40.8298C34.492 40.2898 35.0309 39.7498 35.0309 39.7498C34.492 39.7498 33.9531 39.7498 33.4142 39.2098ZM44.1926 47.8498C44.1926 47.8498 43.6537 47.3098 43.1148 47.3098H40.9591C40.4202 47.3098 40.4202 47.3098 40.4202 46.7698C40.4202 46.2298 39.8812 45.6898 39.8812 45.1498C39.8812 45.1498 39.8812 44.6098 39.3423 44.6098V44.0698V43.5298H38.8034C38.2645 43.5298 38.2645 43.5298 37.7255 43.5298L38.2645 44.0698C38.2645 44.0698 38.2645 44.0698 38.2645 44.6098C38.2645 45.1498 38.2645 45.1498 38.2645 45.6898C38.2645 45.6898 38.2645 45.6898 38.2645 46.2298C38.2645 46.7698 38.8034 47.3098 38.8034 47.8498C39.3423 48.3898 40.4202 48.9298 40.9591 48.9298H43.1148V50.5498H41.498C40.9591 50.5498 39.8812 51.0898 39.8812 51.6298L38.8034 54.3298C38.2645 54.8698 38.8034 55.9498 39.3423 56.4898L40.4202 58.1098L39.3423 59.7298L37.7255 58.6498C37.1866 58.1098 36.1088 58.1098 35.0309 58.6498C34.492 59.1898 33.4142 59.1898 32.8752 59.7298C31.7974 59.7298 31.2585 60.8098 31.2585 61.8898V63.5098H29.1028V61.3498C29.1028 60.2698 28.5639 59.7298 27.486 59.7298H26.9471C26.9471 60.2698 26.4082 60.8098 26.4082 61.3498H26.9471L27.486 61.8898V64.0498C27.486 64.5898 28.025 65.1298 29.1028 65.1298H31.2585C31.7974 65.1298 32.3363 64.5898 32.8752 64.0498V61.8898C32.8752 61.3498 32.8752 61.3498 33.4142 61.3498C34.492 61.3498 35.0309 60.8098 35.5699 60.2698H36.1088L37.7255 61.3498C38.2645 61.8898 39.3423 61.8898 39.3423 61.3498L40.9591 59.7298C41.498 59.1898 41.498 58.6498 40.9591 58.1098L39.8812 56.4898V55.9498L40.9591 53.2498L41.498 52.7098H43.1148C43.6537 52.7098 44.1926 52.1698 44.1926 51.0898V48.9298C44.1926 48.3898 44.1926 48.3898 44.1926 47.8498ZM23.7136 58.1098C23.1747 58.1098 22.6357 58.1098 22.0968 58.6498L20.48 59.7298L18.8633 58.6498L19.9411 57.0298C20.48 56.4898 20.48 55.4098 19.9411 54.3298C21.019 54.3298 20.48 53.2498 20.48 52.7098C20.48 51.6298 19.4022 51.0898 18.8633 51.0898H17.2465V48.9298H19.4022C20.48 48.9298 21.019 48.3898 21.5579 47.3098C21.5579 46.7698 22.0968 45.6898 22.6357 45.1498C21.5579 44.6098 21.5579 43.5298 21.019 42.9898L20.48 41.9098L18.8633 40.2898C18.3244 40.8298 18.3244 41.3698 18.8633 41.9098L19.9411 43.5298V44.0698C19.4022 45.1498 18.8633 46.2298 18.8633 46.7698L18.3244 47.3098L16.1687 47.8498C15.6297 47.8498 15.0908 48.3898 15.0908 48.9298V51.0898C15.0908 51.6298 15.6297 52.1698 16.1687 52.7098H18.3244C18.8633 52.7098 18.8633 52.7098 18.8633 53.2498C18.8633 54.3298 19.4022 54.8698 19.9411 55.4098V55.9498L18.8633 57.5698C18.3244 58.1098 18.3244 59.1898 18.8633 59.1898L20.48 60.8098C21.019 61.3498 21.5579 61.3498 22.0968 60.8098L23.7136 59.7298H24.2525L24.7914 58.1098C24.7914 58.6498 24.2525 58.1098 23.7136 58.1098Z" fill="#1B4C7E"/>
<path d="M37.7243 46.7692C37.7243 46.2292 37.1854 45.6892 37.1854 45.1492C36.1075 45.6892 35.5686 46.2292 35.5686 46.7692C36.1075 47.3092 36.1075 47.8492 36.1075 48.3892C36.1075 48.9292 36.6465 49.4692 36.6465 50.0092C36.6465 51.0892 36.1075 52.1692 36.1075 53.2492C35.5686 54.3292 34.4908 55.4092 33.4129 55.9492C32.3351 56.4892 31.2572 56.4892 30.1794 56.4892C29.6405 56.4892 29.1016 56.4892 28.5626 55.9492C28.0237 55.9492 27.4848 55.4092 26.9459 55.4092C25.3291 54.3292 24.2513 53.2492 24.2513 51.6292C24.2513 51.0892 24.2513 50.5492 24.2513 50.0092C24.2513 49.4692 24.2513 48.3892 24.7902 47.8492C24.7902 47.3092 25.3291 46.7692 25.3291 46.2292L23.1734 44.6092C22.6345 45.1492 22.6345 45.6892 22.0956 46.2292C21.5566 47.3092 21.5566 48.3892 21.5566 50.0092C21.5566 50.5492 21.5566 51.0892 21.5566 51.6292C21.5566 52.1692 21.5566 52.7092 22.0956 53.2492C22.6345 54.8692 23.7123 55.9492 25.3291 57.0292C25.868 57.5692 26.4069 57.5692 26.9459 57.5692C28.0237 58.1092 29.1015 58.1092 30.1794 58.1092C30.7183 58.1092 31.2572 58.1092 32.3351 58.1092C32.874 58.1092 33.4129 57.5692 33.9518 57.5692C35.5686 57.0292 36.6465 55.4092 37.7243 53.7892C37.1854 53.7892 37.7243 53.2492 37.7243 52.7092C37.7243 52.1692 38.2632 51.0892 38.2632 50.0092C38.2632 48.9292 37.7243 47.8492 37.7243 46.7692ZM26.9459 44.0692C27.4848 43.5292 28.5626 43.5292 29.6405 43.5292C30.1794 43.5292 30.7183 43.5292 31.2572 43.5292C31.7962 42.9892 32.3351 42.4492 32.874 41.9092C32.3351 41.9092 31.7962 41.9092 31.2572 41.9092C30.7183 41.9092 30.1794 41.9092 29.6405 41.9092C28.0237 41.3692 26.9459 41.9092 25.3291 42.4492C24.7902 42.9892 24.7902 43.5292 24.2513 43.5292L25.868 45.1492C25.868 44.6092 26.4069 44.6092 26.9459 44.0692Z" fill="#1B4C7E"/>
<path d="M48.5037 34.8894L47.9648 34.3494H47.4258L44.1923 37.5894H42.5755L40.9588 35.9694V34.3494L44.1923 31.1094V30.5694C44.1923 30.5694 44.1923 30.0294 43.6534 30.0294C43.1145 29.4894 42.0366 29.4894 41.4977 29.4894C38.8031 29.4894 36.1085 30.5694 35.0306 32.7294C33.4139 34.3494 32.8749 37.0494 33.4139 39.2094L29.6414 43.5294L28.0246 45.1494L26.9468 44.0694L25.33 42.4494L24.2522 41.3694L21.0187 38.6694L18.324 35.4294V33.2694C18.324 32.7294 18.324 32.7294 17.7851 32.7294L12.3959 29.4894C11.857 29.4894 11.857 29.4894 11.3181 29.4894L10.2402 30.5694L9.16237 31.6494C9.16237 31.6494 8.62345 32.1894 9.16237 32.7294L12.3959 38.1294L12.9348 38.6694H15.0905L19.9408 43.5294L21.0187 44.6094L22.0965 45.6894L23.7133 47.3094L24.7911 48.3894L23.7133 48.9294L21.5576 51.6294C21.5576 52.1694 21.5576 52.7094 22.0965 53.2494C22.6354 52.7094 23.1743 52.1694 23.7133 51.6294C24.2522 51.0894 25.33 50.0094 26.4079 48.9294C28.5636 46.7694 30.1803 45.1494 31.7971 43.5294C31.7971 42.9894 32.336 42.4494 32.8749 41.9094C33.4139 41.3694 33.4139 41.3694 33.9528 40.8294C34.4917 40.2894 35.0306 39.7494 35.0306 39.7494V39.2094C34.4917 37.0494 35.0306 35.4294 36.1085 33.2694C37.1863 31.6494 39.342 30.5694 41.4977 30.5694H42.0366L39.342 33.2694V33.8094V35.9694V36.5094L41.4977 38.6694H42.0366H44.1923H44.7312L47.4258 35.9694V36.5094C47.4258 40.8294 44.7312 43.5294 41.4977 43.5294C40.9588 43.5294 40.4198 43.5294 39.8809 43.5294H39.342C38.8031 43.5294 38.8031 43.5294 38.2642 43.5294V44.0694C37.7252 44.0694 37.1863 44.6094 36.6474 45.1494C36.1085 45.6894 35.5695 46.2294 35.5695 46.7694C32.336 49.4694 29.1025 52.7094 26.4079 55.4094C25.869 55.9494 25.869 55.9494 25.869 55.9494L25.33 56.4894C25.869 57.0294 26.4079 57.0294 26.9468 57.0294L28.5636 55.4094L29.1025 54.8694L29.6414 54.3294L30.7193 55.4094L30.1803 55.9494C29.6414 56.4894 29.6414 57.0294 30.1803 57.0294C30.7193 57.5694 30.7193 57.5694 31.2582 57.0294L31.7971 56.4894L32.336 57.0294C32.8749 57.0294 33.4139 56.4894 33.9528 56.4894H32.336L32.8749 55.9494L35.5695 53.2494L37.1863 54.3294C37.1863 53.7894 37.7252 53.2494 37.7252 52.7094L36.6474 51.6294L37.1863 51.0894C37.1863 50.5494 37.1863 50.5494 37.1863 50.0094C36.6474 49.4694 36.6474 49.4694 36.1085 50.0094L35.5695 50.5494L34.4917 49.4694L36.1085 47.8494L37.7252 46.7694L39.342 45.1494H39.8809C40.4198 45.1494 40.9588 45.1494 41.4977 45.1494C45.8091 45.1494 49.5815 41.3694 49.5815 37.0494C49.0426 36.5094 49.0426 35.4294 48.5037 34.8894ZM25.869 46.7694L25.33 47.3094L24.2522 46.2294L23.1743 44.6094L20.4797 41.9094L18.863 40.2894L15.6294 37.5894H15.0905H13.4737L10.7791 32.7294L12.3959 31.1094L17.2462 33.8094V35.4294V35.9694L19.9408 38.6694L21.0187 39.7494L24.2522 43.5294L25.869 45.1494L26.9468 46.2294L25.869 46.7694ZM34.4917 51.6294L31.2582 54.8694L30.7193 54.3294H30.1803L33.4139 51.0894L34.4917 51.6294ZM29.6414 43.5294L28.0246 45.1494L26.9468 44.0694C26.4079 44.0694 25.869 44.6094 25.869 45.1494L26.9468 46.2294L25.869 46.7694L25.33 47.3094L24.2522 46.2294L23.1743 44.6094L20.4797 41.9094L21.0187 42.4494C21.5576 43.5294 21.5576 44.6094 21.0187 45.1494L22.0965 46.2294L23.7133 47.8494L24.7911 48.9294H23.7133L21.5576 51.6294C21.5576 52.1694 21.5576 52.7094 22.0965 53.2494C22.6354 52.7094 23.1743 52.1694 23.7133 51.6294C24.2522 51.0894 25.33 50.0094 26.4079 48.9294C28.5636 46.7694 30.1803 45.1494 31.7971 43.5294C30.7193 43.5294 30.1803 43.5294 29.6414 43.5294Z" fill="#1B4C7E"/>
<path d="M38.802 31.6489C38.802 31.6489 34.4907 33.2689 35.5685 38.1289C36.1074 38.6689 35.5685 34.3489 38.802 31.6489Z" fill="#ACBCCB"/>
<path d="M13.4731 32.7299L16.1678 34.3499V34.8899V36.5099V34.8899C16.1678 34.8899 16.1678 34.8899 16.1678 34.3499L13.4731 32.7299Z" fill="#ACBCCB"/>
<path d="M59.8198 44.61C59.2809 44.61 58.742 44.61 58.742 44.07V43.53H58.2031L57.6641 44.07H57.1252L56.5863 43.53V42.99L57.1252 42.45V41.91H56.5863C56.5863 41.91 56.0474 41.91 56.0474 41.37V40.83C56.0474 40.83 56.0474 40.29 56.5863 40.29H57.1252V39.75L56.5863 39.21V38.67L57.1252 38.13H57.6641H58.2031V37.59C58.2031 37.59 58.2031 37.05 58.742 37.05H59.2809C59.2809 37.05 59.8198 37.05 59.8198 37.59V38.13H60.3587H61.4366H61.9755H62.5144V38.67L61.9755 39.21V39.75H62.5144C62.5144 39.75 63.0533 39.75 63.0533 40.29V40.83C63.0533 40.83 63.0534 41.37 62.5144 41.37H61.9755L61.4366 41.91L61.9755 42.45V42.99L61.4366 43.53H60.8977H60.3587L59.8198 44.61C60.3587 44.61 59.8198 44.61 59.8198 44.61ZM58.2031 42.99C58.742 42.99 58.742 42.99 59.2809 43.53C59.2809 43.53 59.8198 43.53 59.8198 44.07V44.61H60.3587V44.07C60.3587 44.07 60.3587 43.53 60.8977 43.53H61.4366H61.9755L62.5144 42.99L61.9755 42.45V41.91L62.5144 41.37C62.5144 41.37 62.5144 40.83 63.0533 40.83H63.5923V40.29H63.0533C63.0533 40.29 62.5144 40.29 62.5144 39.75V39.21V38.67L63.0533 38.13H61.9755L61.4366 38.67H60.8977H60.3587C60.3587 38.67 59.8198 38.67 59.8198 38.13V37.59H59.2809V38.13C59.2809 38.13 59.2809 38.67 58.742 38.67H58.2031H57.6641L57.1252 38.13L56.5863 38.67L57.1252 39.21V39.75V40.29C57.1252 40.29 57.1252 40.83 56.5863 40.83H56.0474V41.37H56.5863C56.5863 41.37 57.1252 41.37 57.1252 41.91V42.45V42.99L56.5863 43.53H57.1252L58.2031 42.99C57.6641 42.99 57.6641 42.99 58.2031 42.99Z" fill="#1F91CB"/>
<path d="M59.2799 42.4496C58.202 42.4496 57.6631 41.9096 57.6631 40.8296C57.6631 39.7496 58.202 39.2096 59.2799 39.2096C60.3577 39.2096 60.8966 39.7496 60.8966 40.8296C61.4355 41.9096 60.3577 42.4496 59.2799 42.4496ZM59.2799 39.7496C58.7409 39.7496 57.6631 40.2896 57.6631 41.3696C57.6631 42.4496 58.202 42.9896 59.2799 42.9896C60.3577 42.9896 60.8966 42.4496 60.8966 41.3696C60.8966 40.2896 60.3577 39.7496 59.2799 39.7496Z" fill="#1F91CB"/>
<path d="M70.598 51.6291H48.5022C47.9632 51.6291 47.4243 51.0891 47.4243 50.5491C47.4243 50.0091 47.9632 49.4691 48.5022 49.4691H70.598C71.1369 49.4691 71.6758 50.0091 71.6758 50.5491C71.6758 51.6291 71.1369 51.6291 70.598 51.6291Z" fill="#ACBCCB"/>
<path d="M70.598 55.9498H48.5022C47.9632 55.9498 47.4243 55.4098 47.4243 54.8698C47.4243 54.8698 47.9632 54.3298 48.5022 54.3298H70.598C71.1369 54.3298 71.6758 54.8698 71.6758 55.4098C71.6758 55.9498 71.1369 55.9498 70.598 55.9498Z" fill="#ACBCCB"/>
<path d="M70.598 60.2696H48.5022C47.9632 60.2696 47.4243 59.7296 47.4243 59.1896C47.4243 58.6496 47.9632 58.1096 48.5022 58.1096H70.598C71.1369 58.1096 71.6758 58.6496 71.6758 59.1896C71.6758 60.2696 71.1369 60.2696 70.598 60.2696Z" fill="#ACBCCB"/>
<path d="M72.7544 19.7696H50.1197C49.0419 19.7696 48.5029 19.2296 48.5029 18.6896C48.5029 18.1496 49.0419 17.6096 49.5808 17.6096H72.7544C73.2933 17.6096 73.8323 18.1496 73.8323 18.6896C73.8323 19.2296 73.8323 19.7696 72.7544 19.7696Z" fill="#1B4C7E"/>
<path d="M18.8615 19.7696C19.4568 19.7696 19.9394 19.2861 19.9394 18.6896C19.9394 18.0932 19.4568 17.6096 18.8615 17.6096C18.2663 17.6096 17.7837 18.0932 17.7837 18.6896C17.7837 19.2861 18.2663 19.7696 18.8615 19.7696Z" fill="#1B4C7E"/>
<path d="M23.7136 19.7696C24.3089 19.7696 24.7914 19.2861 24.7914 18.6896C24.7914 18.0932 24.3089 17.6096 23.7136 17.6096C23.1183 17.6096 22.6357 18.0932 22.6357 18.6896C22.6357 19.2861 23.1183 19.7696 23.7136 19.7696Z" fill="#1B4C7E"/>
<path d="M28.5632 19.7696C29.1585 19.7696 29.641 19.2861 29.641 18.6896C29.641 18.0932 29.1585 17.6096 28.5632 17.6096C27.9679 17.6096 27.4854 18.0932 27.4854 18.6896C27.4854 19.2861 27.9679 19.7696 28.5632 19.7696Z" fill="#1B4C7E"/>
<path d="M74.3711 26.2492H73.2932H72.7543C72.7543 25.7092 72.7543 25.7092 72.2154 25.1692V24.6292L72.7543 23.5492V23.0092C72.7543 23.0092 72.7543 23.0092 72.7543 22.4692L72.2154 21.9292C72.2154 21.9292 71.6765 21.3892 71.1375 21.9292L70.0597 22.4692H69.5208C68.9818 22.4692 68.4429 21.9292 68.4429 21.9292C68.4429 21.9292 68.4429 21.9292 68.4429 21.3892V20.3092C68.4429 19.7692 67.904 19.7692 67.904 19.7692H66.8262C66.2872 19.7692 66.2872 20.3092 66.2872 20.3092V21.3892V21.9292C65.7483 21.9292 65.2094 22.4692 65.2094 22.4692H64.6705L63.0537 21.9292C62.5148 21.9292 62.5148 21.9292 61.9759 21.9292L61.4369 22.4692C61.4369 22.4692 61.4369 22.4692 61.4369 23.0092V23.5492L61.9759 24.6292V25.1692C61.9759 25.7092 61.4369 25.7092 61.4369 26.2492C61.4369 26.2492 61.4369 26.2492 60.898 26.2492H59.8202C59.8202 26.7892 59.2812 26.7892 59.2812 27.3292V28.4092C59.2812 28.9492 59.8202 28.9492 59.8202 28.9492H60.898H61.4369C61.4369 29.4892 61.9759 30.0292 61.9759 30.0292V30.5692L61.4369 31.6492C61.4369 32.1892 61.4369 32.1892 61.4369 32.7292L61.9759 33.2692C61.9759 33.2692 62.5148 33.8092 63.0537 33.2692L64.1315 32.7292H64.6705C65.2094 32.7292 65.7483 33.2692 65.7483 33.2692C65.7483 33.2692 65.7483 33.2692 65.7483 33.8092V34.8892C65.7483 35.4292 66.2872 35.4292 66.2872 35.4292H67.3651C67.904 35.4292 67.904 34.8892 67.904 34.8892V33.8092V33.2692C68.4429 33.2692 68.9819 32.7292 68.9819 32.7292H69.5208L70.5986 33.2692C71.1375 33.2692 71.1375 33.2692 71.6765 33.2692L72.7543 32.7292C72.7543 32.7292 73.2932 32.1892 72.7543 31.6492L72.2154 31.1092V30.5692L72.7543 29.4892C72.7543 29.4892 72.7543 29.4892 73.2932 29.4892H74.3711C74.91 29.4892 74.91 28.9492 74.91 28.9492V27.3292C74.91 26.7892 74.3711 26.7892 74.3711 26.2492ZM73.2932 28.4092C72.7543 28.4092 72.7543 28.9492 72.2154 28.9492L71.6765 30.0292C71.6765 30.5692 71.6765 31.1092 71.6765 31.1092L72.2154 31.6492L71.6765 32.1892L71.1375 32.7292C70.5986 32.1892 70.0597 32.1892 70.0597 32.7292C69.5208 32.7292 68.9818 32.7292 68.4429 32.7292C67.904 32.7292 67.904 33.2692 67.3651 33.8092V34.8892H66.2872V33.8092C66.2872 33.2692 65.7483 32.7292 65.2094 32.7292C65.2094 32.7292 64.6705 32.7292 64.6705 32.1892H64.1315H63.5926L63.0537 32.7292L62.5148 32.1892L63.0537 31.1092C63.5926 30.5692 63.5926 30.0292 63.0537 30.0292C63.0537 29.4892 62.5148 29.4892 62.5148 28.9492C62.5148 28.4092 61.9759 28.4092 61.4369 27.8692H60.3591V26.7892H61.4369C61.9759 26.7892 62.5148 26.2492 62.5148 25.7092C62.5148 25.1692 62.5148 25.1692 63.0537 24.6292C63.0537 24.0892 63.0537 24.0892 63.0537 23.5492L62.5148 23.0092V22.4692L63.0537 21.9292L63.5926 22.4692C64.1316 23.0092 64.6705 23.0092 64.6705 22.4692C64.6705 22.4692 65.2094 22.4692 65.2094 21.9292H65.7483C66.2872 21.9292 66.2872 21.3892 66.8262 20.8492V19.7692H67.904V20.8492C67.904 21.3892 68.4429 21.9292 68.9819 21.9292H69.5208C69.5208 21.9292 70.0597 21.9292 70.0597 22.4692C70.5986 22.4692 71.1375 22.4692 71.1375 22.4692L71.6765 21.9292L72.2154 22.4692L71.6765 23.5492C71.6765 24.0892 71.1375 24.0892 71.6765 24.6292C71.6765 25.1692 72.2154 25.1692 72.2154 25.7092C72.2154 26.2492 72.7543 26.2492 73.2932 26.7892H74.3711V27.8692L73.2932 28.4092Z" fill="#1B4C7E"/>
<path d="M70.0589 26.2488C69.5199 25.1688 68.4421 24.6288 66.8253 24.6288C65.2086 24.6288 64.6696 25.1688 64.1307 26.2488C64.1307 26.7888 63.5918 27.3288 63.5918 27.8688C63.5918 30.0288 65.2086 31.1088 66.8253 31.1088C68.981 31.1088 70.0589 29.4888 70.0589 27.8688C70.5978 27.3288 70.5978 26.7888 70.0589 26.2488ZM66.8253 30.5688C65.2086 30.5688 64.1307 29.4888 64.1307 27.8688C64.1307 27.3288 64.1307 26.7888 64.6696 26.2488C65.2086 25.7088 65.7475 25.1688 66.8253 25.1688C67.9032 25.1688 68.4421 25.7088 68.981 26.2488C69.5199 26.7888 69.5199 27.3288 69.5199 27.8688C69.5199 29.4888 68.4421 30.5688 66.8253 30.5688Z" fill="#1B4C7E"/>
<path d="M6.46707 38.1292H5.38922V37.5892C5.38922 36.5092 4.8503 35.9692 3.77245 35.9692C2.69461 35.9692 2.15569 36.5092 2.15569 37.5892V38.1292H1.61677C0.538922 38.1292 0 39.2092 0 39.7492C0 40.8292 0.538922 41.3692 1.61677 41.3692H2.69461V42.4492C2.15569 42.9892 3.23353 43.5292 3.77245 43.5292C4.31138 43.5292 5.38922 42.9892 5.38922 42.4492V41.3692H6.46707C7.54491 41.3692 8.08383 40.8292 8.08383 39.7492C7.54491 39.2092 7.00599 38.1292 6.46707 38.1292Z" fill="#ACBCCB"/>
<path d="M64.6697 8.96962C63.5919 8.96962 62.5141 8.42962 61.4362 7.88962C59.8194 6.26962 59.8194 3.56962 61.4362 1.94962C63.053 0.329619 65.7476 0.329619 67.3643 1.94962C68.9811 3.56962 68.9811 6.26962 67.3643 7.88962C66.8254 8.42962 65.7476 8.96962 64.6697 8.96962ZM64.6697 3.56962C64.1308 3.56962 64.1308 3.56962 63.5919 4.10962C63.053 4.64962 63.053 5.72962 63.5919 6.26962C64.1308 6.80962 65.2087 6.80962 65.7476 6.26962C66.2865 5.72962 66.2865 4.64962 65.7476 4.10962C65.7476 3.56962 65.2087 3.56962 64.6697 3.56962Z" fill="#ACBCCB"/>
<path d="M46.3471 75.9299H45.8082V74.8499C45.8082 73.7699 45.2692 73.2299 44.1914 73.2299C43.1136 73.2299 42.5746 73.7699 42.5746 74.8499V75.9299H42.0357C40.9579 75.9299 40.4189 76.4699 40.4189 77.5499C40.4189 78.6299 40.9579 79.1699 42.0357 79.1699H43.1136V80.2499C42.5746 80.7899 43.1136 81.3299 44.1914 81.3299C45.2692 81.3299 45.8082 80.7899 45.8082 79.7099V78.6299H46.886C47.9639 78.6299 48.5028 78.0899 48.5028 77.0099C48.5028 75.9299 47.4249 75.9299 46.3471 75.9299Z" fill="#ACBCCB"/>
<path d="M88.923 69.45H87.8451V68.37C87.8451 67.29 87.3062 66.75 86.2284 66.75C85.1505 66.75 84.6116 67.29 84.6116 68.37V69.45H83.5338C82.4559 69.45 81.917 69.99 81.917 71.07C81.917 72.15 82.4559 72.69 83.5338 72.69H84.6116V73.77C84.6116 74.85 85.1505 75.39 86.2284 75.39C87.3062 75.39 87.8451 74.85 87.8451 73.77V72.69H88.923C90.0008 72.69 90.5398 72.15 90.5398 71.07C90.0008 69.99 89.4619 69.45 88.923 69.45Z" fill="#ACBCCB"/>
<path d="M7.54391 10.5899C6.46606 10.5899 5.38822 10.0499 4.84929 9.50986C3.23253 7.88986 3.23253 5.18986 4.84929 3.56986C6.46606 1.94986 9.16067 1.94986 10.7774 3.56986C12.3942 5.18986 12.3942 7.88986 10.7774 9.50986C10.2385 10.0499 8.62175 10.5899 7.54391 10.5899ZM7.54391 4.64986C7.00498 4.64986 7.00498 4.64986 6.46606 5.18986C6.46606 5.72986 6.46606 6.80986 7.00498 7.34986C7.5439 7.88986 8.62175 7.88986 9.16067 7.34986C9.69959 6.80986 9.69959 5.72986 9.16067 5.18986C8.62175 5.18986 8.08283 4.64986 7.54391 4.64986Z" fill="#ACBCCB"/>
</svg>
