<svg width="90" height="101" viewBox="0 0 90 101" fill="none" xmlns="http://www.w3.org/2000/svg">
<path d="M65.8548 35.0208C62.0134 35.0208 58.7207 31.7686 58.7207 27.9743C58.7207 24.18 62.0134 20.9277 65.8548 20.9277C69.6963 20.9277 72.989 24.18 72.989 27.9743C72.989 31.7686 69.6963 35.0208 65.8548 35.0208ZM65.8548 23.0959C63.1109 23.0959 60.9158 25.2641 60.9158 27.9743C60.9158 30.6845 63.1109 32.8527 65.8548 32.8527C68.5988 32.8527 70.7939 30.6845 70.7939 27.9743C70.7939 25.2641 68.5988 23.0959 65.8548 23.0959Z" fill="#1B4C7D"/>
<path d="M80.1224 30.1425C80.1224 33.3947 78.4761 36.1049 76.8298 38.2731C76.281 37.189 75.7322 36.1049 74.6346 35.0208C72.9883 33.3947 70.2444 32.3106 66.4029 32.3106C60.3664 32.3106 57.0737 35.0208 55.9761 38.2731C52.6834 35.5629 51.5859 31.2266 52.1346 26.8902C53.2322 20.9277 58.1712 16.0494 64.7566 15.5073C66.9517 15.5073 69.1468 15.5073 70.7932 16.0494C71.8907 16.5914 72.4395 16.5914 73.5371 17.1334C76.8298 19.3016 79.0249 22.0118 80.1224 25.8061C80.1224 26.3482 80.6712 26.8902 81.22 26.8902C81.7688 26.8902 82.3176 26.3482 82.3176 25.8061C81.22 20.3857 76.8298 15.5073 71.342 13.8812C69.1468 13.3391 67.5005 12.7971 65.3054 13.3391C57.0737 13.8812 50.4883 19.8437 49.9395 27.4323C48.842 37.189 56.5249 45.3197 66.4029 45.3197H66.9517C75.1834 45.3197 82.3176 38.8151 82.8664 30.1425C82.8664 29.6004 82.3176 29.0584 81.7688 29.0584C80.6712 29.0584 80.1224 29.6004 80.1224 30.1425ZM69.1468 42.6094C68.0493 43.1515 66.9517 43.1515 65.8542 43.1515C62.5615 43.1515 59.8176 42.0674 57.6224 40.4413C58.1712 37.7311 60.3664 35.0208 65.8542 35.0208C69.1468 35.0208 71.8907 36.1049 72.9883 37.7311C73.5371 38.2731 74.0859 39.3572 74.0859 40.4413C72.9883 41.5254 71.342 42.0674 69.1468 42.6094Z" fill="#1B4C7D"/>
<path d="M80.1232 29.0587C80.1232 32.853 79.0256 36.1053 76.2817 38.2734C75.7329 37.1893 75.1841 36.1053 74.0866 35.0212C76.8305 27.9746 73.5378 20.386 70.2451 16.0497C71.8915 16.5917 72.4402 16.5917 73.5378 17.1338C77.3793 19.844 80.1232 24.1803 80.1232 29.0587Z" fill="#1F91CB"/>
<path d="M65.8548 89.2251C62.0134 89.2251 58.7207 85.9728 58.7207 82.1785C58.7207 78.3842 62.0134 75.132 65.8548 75.132C69.6963 75.132 72.989 78.3842 72.989 82.1785C72.989 86.5148 69.6963 89.2251 65.8548 89.2251ZM65.8548 77.8422C63.1109 77.8422 60.9158 80.0103 60.9158 82.7205C60.9158 85.4308 63.1109 87.5989 65.8548 87.5989C68.5988 87.5989 70.7939 85.4308 70.7939 82.7205C70.7939 80.0103 68.5988 77.8422 65.8548 77.8422Z" fill="#1B4C7D"/>
<path d="M68.5975 67.5438C67.4999 67.5438 66.9511 67.5438 65.8536 67.5438C57.0731 67.5438 49.3901 74.5904 49.3901 83.8051C49.3901 92.4778 56.5243 100.066 65.8536 100.066C74.634 100.066 82.317 93.0198 82.317 83.8051C82.317 75.6745 76.2804 69.17 68.5975 67.5438ZM68.5975 97.3562C67.4999 97.3562 66.9511 97.3562 65.8536 97.3562C62.5609 97.3562 59.817 96.2721 57.6218 94.646C58.1706 91.9357 60.3657 89.2255 65.8536 89.2255C69.1462 89.2255 71.3414 90.3096 72.4389 91.3937C73.5365 92.4778 74.0853 93.5619 74.0853 94.646C72.4389 96.2721 70.7926 96.8141 68.5975 97.3562ZM76.2804 93.0198C75.7316 91.9357 75.1828 90.3096 73.5365 89.2255C71.8901 88.1414 69.695 87.0574 65.8536 87.0574C59.817 87.0574 56.5243 89.7676 55.4267 93.0198C53.2316 90.3096 51.5853 87.0574 51.5853 83.8051C51.5853 76.2165 58.1706 69.712 65.8536 69.712C67.4999 69.712 69.1462 70.254 70.7926 70.254C76.2804 72.4222 80.1219 77.3006 80.1219 83.2631C80.1219 87.0574 78.4755 90.3096 76.2804 93.0198Z" fill="#1B4C7D"/>
<path d="M80.1232 83.8051C80.1232 87.5994 79.0256 90.8517 76.2817 93.0198C75.7329 91.9357 75.1841 90.3096 73.5378 89.2255C76.2817 81.6369 73.5378 75.1324 70.2451 70.254C76.2817 72.4222 80.1232 77.8426 80.1232 83.8051Z" fill="#1F91CB"/>
<path d="M22.5008 32.311C21.952 32.311 20.8544 32.311 20.3056 32.311C15.3666 32.311 10.9764 33.9372 7.1349 37.1894C6.58612 37.7315 6.58612 38.8155 7.1349 39.3576C7.68368 39.8996 8.23246 39.8996 8.78124 39.3576C11.5251 36.6474 15.9154 35.5633 19.7569 35.5633C20.8544 35.5633 21.952 35.5633 23.5983 36.1053C31.2812 37.1894 37.3178 43.6939 37.3178 52.3666C37.3178 56.703 35.6715 60.4972 32.9276 63.7495C32.3788 62.1234 31.2812 60.4972 29.6349 59.4132C28.5373 58.3291 26.891 57.787 25.2447 57.245C27.4398 55.0768 28.5373 52.3666 27.9886 49.1144C27.4398 45.3201 25.2447 43.1519 21.952 42.0678C16.4642 41.5258 11.5251 45.3201 11.5251 50.7405C11.5251 53.4507 12.6227 55.6189 14.269 57.245C10.4276 58.3291 8.23246 61.0393 7.1349 63.7495C4.391 60.4972 2.74465 56.703 2.74465 52.3666C2.74465 50.1984 3.29343 48.0303 3.84222 45.8621C3.84222 45.3201 3.84222 44.778 3.29343 44.236C2.74465 43.6939 1.64709 43.6939 1.64709 44.778C0.000751304 48.0303 -0.548029 51.8246 0.549532 56.1609C2.19587 65.3756 10.9764 71.8801 20.3056 71.8801C20.8544 71.8801 21.952 71.8801 22.5008 71.8801C32.3788 70.7961 40.0617 62.1234 40.0617 52.3666C40.0617 42.0678 32.3788 33.3951 22.5008 32.311ZM14.269 49.6564C14.8178 47.4882 16.4642 45.3201 18.6593 44.778C22.5008 44.236 25.7934 46.9462 25.7934 50.1984C25.7934 52.9086 24.1471 55.0768 21.4032 55.6189C20.8544 55.6189 20.3056 55.6189 20.3056 55.6189C19.7569 55.6189 19.2081 55.6189 19.2081 55.6189C15.9154 55.6189 13.7203 52.9087 14.269 49.6564ZM21.952 69.1699C21.4032 69.1699 20.8544 69.1699 20.3056 69.1699C16.4642 69.1699 13.1715 68.0858 9.8788 65.9177C10.4276 62.6654 13.7203 59.4132 20.3056 59.4132C24.1471 59.4132 26.891 60.4972 28.5373 62.1234C29.6349 63.2075 30.1837 64.8336 30.7325 65.9177C27.9886 67.5438 25.2447 68.6279 21.952 69.1699Z" fill="#1B4C7D"/>
<path d="M37.3186 52.3659C37.3186 56.7023 35.6723 60.4966 32.9284 63.7488C32.3796 62.1227 31.282 60.4966 29.6357 59.4125C34.5747 48.5716 27.4406 39.3569 23.5991 35.5626C31.282 37.1888 37.3186 43.6933 37.3186 52.3659Z" fill="#1F91CB"/>
<path d="M51.3653 34.3667L35.3813 41.5494L36.2903 43.5229L52.2743 36.3402L51.3653 34.3667Z" fill="#1B4C7D"/>
<path d="M37.6106 58.736L36.3916 60.5393L55.5613 73.1812L56.7802 71.3779L37.6106 58.736Z" fill="#1B4C7D"/>
<path d="M38.9633 65.3754C38.4146 65.3754 38.4146 64.8333 38.4146 64.2913C38.4146 63.7493 38.9633 63.7493 39.5121 64.2913L49.9389 70.7958C50.4877 71.3379 51.5853 72.4219 51.5853 72.964C51.5853 73.506 51.0365 73.506 50.4877 72.964L40.0609 65.9174C39.5121 65.9174 39.5121 65.9174 38.9633 65.3754Z" fill="#ACBCCB"/>
<path d="M41.1593 43.6933C40.0617 43.6933 39.513 43.6933 39.513 43.6933C38.9642 43.6933 39.513 43.1512 40.0617 42.6092L49.391 38.2728C50.4886 38.2728 51.0373 38.2728 51.5861 38.2728C52.1349 38.2728 51.5861 38.8149 51.0373 39.3569L41.7081 43.1512C41.1593 43.6933 41.1593 43.6933 41.1593 43.6933Z" fill="#ACBCCB"/>
<path d="M47.7458 54.5345C47.197 54.5345 46.0995 53.9925 45.5507 53.4504C44.4531 52.3663 44.4531 50.7402 45.5507 49.1141C46.6483 48.03 48.8434 48.03 49.941 49.1141C51.0385 50.1982 51.0385 52.3663 49.941 53.4504C49.3922 53.9925 48.2946 54.5345 47.7458 54.5345ZM47.7458 50.7402C47.7458 50.7402 47.1971 50.7402 47.1971 51.2823C46.6483 51.8243 46.6483 52.3663 47.1971 52.9084C47.7458 53.4504 48.2946 53.4504 48.8434 52.9084C49.3922 52.3663 49.3922 51.8243 48.8434 51.2823C48.2946 50.7402 47.7458 50.7402 47.7458 50.7402Z" fill="#ACBCCB"/>
<path d="M20.3048 29.0583C19.2072 29.0583 17.5609 28.5163 17.0121 27.4322C15.3658 25.8061 15.3658 23.0958 17.0121 21.4697C18.6584 19.8436 21.4023 19.8436 23.0487 21.4697C24.695 23.0958 24.695 25.8061 23.0487 27.4322C22.4999 28.5163 21.4023 29.0583 20.3048 29.0583ZM20.3048 23.0958C19.756 23.0958 19.756 23.0958 19.2072 23.6379C18.6584 24.1799 18.6584 25.264 19.2072 25.8061C19.756 26.3481 20.8536 26.3481 21.4023 25.8061C21.9511 25.264 21.9511 24.1799 21.4023 23.6379C20.8536 23.0958 20.3048 23.0958 20.3048 23.0958Z" fill="#ACBCCB"/>
<path d="M38.9636 75.1315H37.866V74.0474C37.866 72.9634 36.7685 71.8793 35.6709 71.8793C34.5733 71.8793 33.4758 72.9634 33.4758 74.0474V75.1315H32.3782C31.2807 75.1315 30.1831 76.2156 30.1831 77.2997C30.1831 78.3838 31.2807 79.4679 32.3782 79.4679H33.4758V80.5519C33.4758 81.636 34.5733 82.7201 35.6709 82.7201C36.7685 82.7201 37.866 81.636 37.866 80.5519V79.4679H38.9636C40.0612 79.4679 41.1587 78.3838 41.1587 77.2997C41.1587 76.2156 40.0612 75.1315 38.9636 75.1315Z" fill="#ACBCCB"/>
<path d="M86.7074 2.498H85.6098V1.95596C85.6098 0.871877 85.061 0.329834 83.9635 0.329834C82.8659 0.329834 82.3171 0.871877 82.3171 1.95596V3.04005H81.2196C80.122 3.04005 79.5732 3.58209 79.5732 4.66617C79.5732 5.75026 80.6708 5.75026 81.7684 5.75026H82.3171V6.83435C82.3171 7.91843 82.8659 8.46047 83.9635 8.46047C85.061 8.46047 85.6098 7.91843 85.6098 6.83435V5.75026H86.7074C87.2562 5.75026 87.8049 5.20822 87.8049 4.12413C87.8049 3.04005 87.2562 2.498 86.7074 2.498Z" fill="#ACBCCB"/>
<path d="M88.9022 74.0481H87.8046V72.964C87.8046 71.8799 87.2559 71.3379 86.1583 71.3379C85.0607 71.3379 84.512 71.8799 84.512 72.964V74.0481H83.4144C82.3168 74.0481 81.7681 74.5901 81.7681 75.6742C81.7681 76.7583 82.3168 77.3004 83.4144 77.3004H84.512V78.3844C84.512 79.4685 85.0607 80.0106 86.1583 80.0106C87.2559 80.0106 87.8046 79.4685 87.8046 78.3844V77.3004H88.9022C89.9998 77.3004 90.5485 76.7583 90.5485 75.6742C89.9998 74.5901 89.451 74.0481 88.9022 74.0481Z" fill="#ACBCCB"/>
</svg>
