<svg width="90" height="83" viewBox="0 0 90 83" fill="none" xmlns="http://www.w3.org/2000/svg">
<path d="M45.0005 54.1877C48.702 54.1877 51.7026 50.9292 51.7026 46.9096C51.7026 42.89 48.702 39.6315 45.0005 39.6315C41.299 39.6315 38.2983 42.89 38.2983 46.9096C38.2983 50.9292 41.299 54.1877 45.0005 54.1877Z" fill="#1F91CB"/>
<path d="M77.0743 25.0752H74.202H36.8615H29.6807H11.9679H11.4892C11.0105 26.0456 11.0105 26.5308 11.0105 27.016V29.4421C11.0105 29.9273 11.4892 30.4125 11.9679 30.4125H13.4041C13.8828 30.4125 14.3615 29.9273 14.3615 29.4421C14.3615 28.9569 14.8402 28.4716 15.319 28.4716H76.1168C76.5956 28.4716 77.0743 28.9569 77.0743 29.4421V65.8326C77.0743 66.3178 76.5956 66.803 76.1168 66.803H14.8402C14.3615 66.803 13.8828 66.3178 13.8828 65.8326V35.2645C13.8828 34.7793 13.4041 34.2941 12.9254 34.2941H11.4892C11.0105 34.2941 10.5317 34.7793 10.5317 35.2645V67.7734C10.5317 68.7438 11.0105 69.229 11.9679 69.229H77.553C78.5105 69.229 78.9892 68.7438 78.9892 67.7734V27.5012C79.4679 26.5308 78.5105 25.0752 77.0743 25.0752Z" fill="#1B4C7E"/>
<path d="M78.0317 25.0752H74.6807L71.8083 18.7675C68.4573 18.7675 65.1062 17.3119 62.7126 14.8858L36.8615 25.0752H29.6807C29.6807 25.0752 30.1594 24.59 30.6381 24.59L62.2339 11.4894C62.7126 11.0042 63.67 11.0042 64.1488 11.9746C66.0636 14.4006 69.4147 15.8562 72.2871 15.371C73.2445 15.371 73.7232 15.8562 73.7232 16.8266L78.0317 25.0752Z" fill="#ACBCCB"/>
<path d="M89.0425 41.5722L78.9893 45.4539V42.0574L86.6488 39.1462L72.7659 3.72608L20.1063 25.0752H29.6807H11.4893L11.968 24.59L73.2446 0.329631C74.202 -0.155576 75.1595 0.329631 75.1595 1.30005L89.9999 39.6314C90.4786 40.1166 89.9999 41.087 89.0425 41.5722Z" fill="#ACBCCB"/>
<path d="M71.8087 40.1165C71.8087 39.6313 71.8087 39.1461 71.8087 39.1461C71.8087 38.6609 71.33 38.6609 70.8512 38.6609C70.3725 38.6609 69.4151 38.1757 68.9363 37.6905C67.0214 36.2349 65.1065 34.2941 64.6278 31.868C64.6278 31.868 64.6278 31.868 64.6278 31.3828H64.1491H26.3299C25.3725 31.3828 24.8938 31.868 24.415 32.3532C23.4576 35.7497 21.064 38.1757 18.1916 39.1461C17.2342 39.1461 16.7555 40.1165 17.2342 40.6017V53.7023C17.2342 54.1875 17.2342 54.6727 17.2342 54.6727C18.1916 55.158 19.1491 55.6432 20.1065 56.1284C22.0214 57.0988 23.9363 59.5248 24.415 61.9509C24.415 61.9509 24.415 61.9509 24.415 62.4361C24.415 62.4361 24.415 62.4361 24.8938 62.4361H62.2342C63.1917 62.4361 63.6704 61.9509 64.1491 61.4657C65.1065 58.5544 67.5002 56.1284 70.3725 55.158C71.33 55.158 71.8087 54.1875 71.33 53.2171L71.8087 40.1165ZM25.8512 59.0396C24.8938 57.0988 23.4576 55.158 21.5427 53.7023C21.064 53.2171 20.5853 53.2171 20.1065 52.7319C19.6278 52.7319 19.1491 52.2467 18.6704 52.2467V41.087C22.0214 39.6313 24.415 37.2053 25.3725 34.2941H61.2768C62.2342 34.2941 62.2342 34.2941 62.2342 34.7793C63.1917 37.2053 65.1065 39.1461 67.0214 40.1165C67.5002 40.6017 67.9789 40.6017 68.4576 41.087V52.2467C65.1065 53.7023 62.7129 56.1284 61.7555 59.0396H25.8512Z" fill="#1F91CB"/>
<path d="M73.2448 40.6019C73.2448 40.1167 72.7661 39.1463 71.8087 39.1463C70.8512 38.6611 69.8938 38.1759 68.9363 37.6906C67.5002 36.7202 66.064 34.7794 65.5853 32.8386C65.5853 32.3534 64.6278 31.8682 64.1491 31.8682H63.6704H26.3299C25.3725 31.8682 24.8938 32.3534 24.415 32.8386C23.4576 35.7498 21.064 38.1759 18.1916 39.1463C17.2342 39.1463 16.7555 40.1167 17.2342 40.6019V53.7025C17.2342 54.1877 17.2342 54.6729 17.2342 54.6729C17.2342 55.1581 17.7129 55.1581 18.1916 55.1581C18.6704 55.1581 19.6278 55.6433 20.1065 56.1285C22.0214 57.0989 23.9363 59.525 24.415 61.951C24.415 61.951 24.415 61.951 24.415 62.4362C24.8938 62.9214 25.3725 63.4066 25.8512 63.4066C25.8512 63.4066 25.8512 63.4066 26.3299 63.4066H63.6704C64.6278 63.4066 65.1065 62.9214 65.5853 62.4362C66.5427 59.525 68.9363 57.0989 71.8087 56.1285C72.7661 56.1285 72.7661 55.1581 72.7661 54.1877L73.2448 40.6019C73.2448 41.0871 73.2448 41.0871 73.2448 40.6019ZM21.5427 53.7025C21.064 53.2173 20.5853 53.2173 20.1065 52.7321V41.5723C23.4576 40.1167 25.8512 37.6906 26.8087 34.7794H62.7129C63.6704 36.7202 65.1065 38.6611 67.0214 40.1167C67.5002 40.6019 67.9789 40.6019 68.4576 41.0871C68.9363 41.0871 69.4151 41.5723 69.8938 41.5723V52.7321C66.5427 54.1877 64.1491 56.6137 63.1916 59.525H26.8087C26.8087 59.0398 26.8087 59.0398 26.3299 58.5546C25.3725 57.0989 23.9363 55.1581 21.5427 53.7025Z" fill="#1B4C7E"/>
<path d="M46.4352 38.1761C44.5203 37.6909 42.1267 38.1761 40.2118 39.1465C39.2544 39.6317 39.2544 41.0873 40.2118 42.0577C40.6906 42.5429 41.1693 42.5429 41.648 42.0577C43.0842 41.0873 44.5203 41.0873 46.4352 41.0873C48.8289 41.5725 51.2225 43.5133 51.2225 46.4246C51.7012 50.3062 48.8289 53.7027 45.4778 53.7027C42.6054 53.7027 39.7331 51.7619 39.2544 48.8506C39.2544 47.8802 38.7757 46.9098 39.2544 46.4246C39.2544 45.9394 39.2544 44.969 38.2969 44.969C37.3395 43.9985 35.9033 44.4838 35.9033 45.9394C35.9033 46.9098 35.9033 47.8802 35.9033 48.8506C36.382 52.7323 39.7331 56.1287 43.5629 56.6139C49.7863 57.5843 55.531 52.2471 54.5735 45.4542C53.6161 42.0577 50.7437 38.6613 46.4352 38.1761Z" fill="#1B4C7E"/>
<path d="M27.7662 49.8207C29.2023 49.8207 30.1598 48.8503 30.1598 47.3947C30.1598 45.939 29.2023 44.9686 27.7662 44.9686C26.33 44.9686 25.3726 45.939 25.3726 47.3947C25.3726 48.8503 26.8087 49.8207 27.7662 49.8207ZM27.7662 46.4242C28.2449 46.4242 28.7236 46.9095 28.7236 47.3947C28.7236 47.8799 28.2449 48.3651 27.7662 48.3651C27.2875 48.3651 26.8087 47.8799 26.8087 47.3947C26.8087 46.9095 27.2875 46.4242 27.7662 46.4242Z" fill="#1B4C7E"/>
<path d="M62.2335 49.8207C63.6696 49.8207 64.6271 48.8503 64.6271 47.3947C64.6271 45.939 63.6696 44.9686 62.2335 44.9686C60.7973 44.9686 59.8398 45.939 59.8398 47.3947C59.8398 48.8503 60.7973 49.8207 62.2335 49.8207ZM62.2335 46.4242C62.7122 46.4242 63.1909 46.9095 63.1909 47.3947C63.1909 47.8799 62.7122 48.3651 62.2335 48.3651C61.7547 48.3651 61.276 47.8799 61.276 47.3947C61.276 46.9095 61.7547 46.4242 62.2335 46.4242Z" fill="#1B4C7E"/>
<path d="M80.9039 74.0809C85.9273 74.0809 89.9996 69.9535 89.9996 64.862C89.9996 59.7705 85.9273 55.6431 80.9039 55.6431C75.8804 55.6431 71.8081 59.7705 71.8081 64.862C71.8081 69.9535 75.8804 74.0809 80.9039 74.0809Z" fill="#1F91CB"/>
<path d="M81.3835 63.8921V60.9808C81.8622 60.9808 82.3409 61.4661 83.2984 61.9513C83.2984 61.9513 83.2984 61.9513 83.7771 61.9513C84.2558 61.9513 84.2558 61.4661 84.2558 61.4661V60.9808C83.7771 60.4956 82.8197 60.0104 81.8622 60.0104V59.04C81.8622 58.5548 81.8622 58.5548 81.3835 58.5548C80.9048 58.5548 80.9048 58.5548 80.9048 59.04V60.0104C78.9899 60.0104 78.0324 61.4661 78.0324 62.9217C78.0324 64.8625 79.4686 65.3477 80.9048 65.8329V69.2294C79.9473 69.2294 79.4686 68.7442 78.5112 68.259H78.0324C77.5537 68.259 77.5537 68.7442 77.5537 69.2294V69.7146C78.5112 70.685 79.4686 71.1702 80.426 71.1702V72.1406C80.426 72.6258 80.9048 72.6258 80.9048 72.6258C81.3835 72.6258 81.3835 72.6258 81.3835 72.1406V71.1702C83.7771 71.1702 84.7346 69.7146 84.7346 68.259C84.2558 65.3477 82.8197 64.3773 81.3835 63.8921ZM80.426 63.8921C79.4686 63.4069 78.9899 63.4069 78.9899 62.4365C78.9899 61.4661 79.4686 60.9808 80.426 60.9808V63.8921ZM81.3835 68.7442V65.8329C82.3409 66.3181 82.8197 66.3181 82.8197 67.2885C82.8197 67.7737 82.3409 68.7442 81.3835 68.7442Z" fill="white"/>
<path d="M84.2551 10.5189C83.2977 10.5189 82.3402 10.0337 81.3828 9.5485C79.9466 8.09288 79.9466 5.66684 81.3828 4.21122C82.819 2.7556 85.2126 2.7556 86.6488 4.21122C88.0849 5.66684 88.0849 8.09288 86.6488 9.5485C86.6488 10.0337 85.2126 10.5189 84.2551 10.5189ZM84.2551 5.18164C83.7764 5.18164 83.7764 5.18164 83.2977 5.66684C82.819 6.15205 82.819 7.12247 83.2977 7.60767C83.7764 8.09288 84.7339 8.09288 85.2126 7.60767C85.6913 7.12247 85.6913 6.15205 85.2126 5.66684C85.2126 5.66684 84.7339 5.18164 84.2551 5.18164Z" fill="#ACBCCB"/>
<path d="M30.6376 75.5365H29.6802V74.5661C29.6802 73.5957 28.7227 72.6252 27.7653 72.6252C26.8078 72.6252 25.8504 73.5957 25.8504 74.5661V75.5365H24.8929C23.9355 75.5365 22.978 76.5069 22.978 77.4773C22.978 78.4477 23.9355 79.4181 24.8929 79.4181H25.8504V80.3886C25.8504 81.359 26.8078 82.3294 27.7653 82.3294C28.7227 82.3294 29.6802 81.359 29.6802 80.3886V79.4181H30.6376C31.595 79.4181 32.5525 78.4477 32.5525 77.4773C32.5525 76.5069 31.595 75.5365 30.6376 75.5365Z" fill="#ACBCCB"/>
<path d="M5.74468 24.1049H4.78723V23.1345C4.78723 22.164 4.30851 21.6788 3.35106 21.6788C2.39362 21.6788 1.91489 22.164 1.91489 23.1345V24.1049H1.43617C0.478723 24.1049 0 24.5901 0 25.0753C0 26.0457 0.478723 26.5309 1.43617 26.5309H2.39362V27.5013C2.39362 28.4717 2.87234 28.9569 3.82979 28.9569C4.78723 28.9569 4.78723 27.9865 4.78723 27.5013V26.5309H5.74468C6.70213 26.5309 7.18085 26.0457 7.18085 25.0753C6.70213 24.5901 6.2234 24.1049 5.74468 24.1049Z" fill="#ACBCCB"/>
</svg>
