<svg width="30" height="30" viewBox="0 0 30 30" fill="none" xmlns="http://www.w3.org/2000/svg">
<path d="M12 28C13.1046 28 14 27.1046 14 26C14 24.8954 13.1046 24 12 24C10.8954 24 10 24.8954 10 26C10 27.1046 10.8954 28 12 28Z" stroke="#999999" stroke-width="2" stroke-linecap="round" stroke-linejoin="round"/>
<path d="M24 28C25.1046 28 26 27.1046 26 26C26 24.8954 25.1046 24 24 24C22.8954 24 22 24.8954 22 26C22 27.1046 22.8954 28 24 28Z" stroke="#999999" stroke-width="2" stroke-linecap="round" stroke-linejoin="round"/>
<path d="M1.25 1.25H6.25L9.6 17.9875C9.7143 18.563 10.0274 19.08 10.4844 19.4479C10.9415 19.8158 11.5134 20.0112 12.1 20H24.25C24.8366 20.0112 25.4085 19.8158 25.8656 19.4479C26.3226 19.08 26.6357 18.563 26.75 17.9875L28.75 7.5H7.5" stroke="#999999" stroke-width="2" stroke-linecap="round" stroke-linejoin="round"/>
</svg>
