<svg width="26" height="24" viewBox="0 0 26 24" fill="none" xmlns="http://www.w3.org/2000/svg">
<path d="M23.3131 3.37833C22.7173 2.78217 22.0098 2.30925 21.2311 1.98659C20.4524 1.66394 19.6177 1.49786 18.7748 1.49786C17.9319 1.49786 17.0973 1.66394 16.3186 1.98659C15.5399 2.30925 14.8324 2.78217 14.2365 3.37833L12.9998 4.61499L11.7631 3.37833C10.5595 2.17469 8.92702 1.49849 7.22481 1.49849C5.52261 1.49849 3.89012 2.17469 2.68648 3.37833C1.48284 4.58197 0.806641 6.21445 0.806641 7.91666C0.806641 9.61886 1.48284 11.2514 2.68648 12.455L3.92315 13.6917L12.9998 22.7683L22.0765 13.6917L23.3131 12.455C23.9093 11.8591 24.3822 11.1516 24.7049 10.3729C25.0275 9.59421 25.1936 8.75956 25.1936 7.91666C25.1936 7.07376 25.0275 6.23911 24.7049 5.46041C24.3822 4.68171 23.9093 3.97421 23.3131 3.37833V3.37833Z" stroke="white" stroke-linecap="round" stroke-linejoin="round"/>
</svg>
